<svg viewBox="0 0 64 72" fill="none" xmlns="http://www.w3.org/2000/svg">
  <defs>
    <linearGradient id="sg-grad-stroke" x1="32" y1="2" x2="32" y2="70" gradientUnits="userSpaceOnUse">
      <stop offset="0%" stop-color="#3b82f6" />
      <stop offset="100%" stop-color="#10b981" />
    </linearGradient>
    <linearGradient id="sg-grad-inner" x1="32" y1="9" x2="32" y2="64" gradientUnits="userSpaceOnUse">
      <stop offset="0%" stop-color="#60a5fa" stop-opacity="0.4" />
      <stop offset="100%" stop-color="#34d399" stop-opacity="0.15" />
    </linearGradient>
    <linearGradient id="sg-grad-lock" x1="32" y1="22" x2="32" y2="48" gradientUnits="userSpaceOnUse">
      <stop offset="0%" stop-color="#93c5fd" />
      <stop offset="100%" stop-color="#6ee7b7" />
    </linearGradient>
  </defs>
  <path
    d="M32 3L59 14V36C59 52 32 69 32 69C32 69 5 52 5 36V14L32 3Z"
    stroke="url(#sg-grad-stroke)"
    stroke-width="1.5"
    fill="rgba(9,12,19,0.88)"
  />
  <path
    d="M32 9L53 18.5V35C53 48 32 63 32 63C32 63 11 48 11 35V18.5L32 9Z"
    stroke="url(#sg-grad-inner)"
    stroke-width="0.75"
    fill="url(#sg-grad-inner)"
  />
  <path
    d="M26.5 33.5V28C26.5 23 37.5 23 37.5 28V33.5"
    stroke="url(#sg-grad-lock)"
    stroke-width="2.5"
    stroke-linecap="round"
    fill="none"
  />
  <rect x="22.5" y="33" width="19" height="13" rx="2.5" fill="url(#sg-grad-lock)" opacity="0.85" />
  <circle cx="32" cy="38.5" r="2.2" fill="rgba(9,12,19,0.8)" />
  <rect x="30.8" y="38.5" width="2.4" height="3.5" rx="1.2" fill="rgba(9,12,19,0.8)" />
  <text
    x="32"
    y="57"
    text-anchor="middle"
    font-family="'JetBrains Mono', 'Fira Code', monospace"
    font-size="6.5"
    font-weight="700"
    fill="#94a3b8"
    letter-spacing="1.5"
  >
    SG
  </text>
</svg>
